<svg width="96" height="96" viewBox="0 0 96 96" fill="none" xmlns="http://www.w3.org/2000/svg">
  <rect width="96" height="96" rx="18" fill="#F5F7FF"/>
  <circle cx="48" cy="49" r="31" fill="#F2E7DF"/>
  <path d="M25 39c-4-13 2-22 14-12M71 39c4-13-2-22-14-12" fill="#D8C0B2"/>
  <path d="M25 39c-1-10 3-15 10-10M71 39c1-10-3-15-10-10" stroke="#2A2B38" stroke-width="3" stroke-linecap="round"/>
  <path d="M25 52c-1 18 12 31 23 31s24-13 23-31C70 33 58 23 48 23S26 33 25 52Z" fill="#F6E8DF" stroke="#2A2B38" stroke-width="3"/>
  <path d="M34 49c4-4 9-4 13 0M50 49c4-4 9-4 13 0" stroke="#2A2B38" stroke-width="3" stroke-linecap="round"/>
  <circle cx="39" cy="55" r="3" fill="#2A2B38"/>
  <circle cx="57" cy="55" r="3" fill="#2A2B38"/>
  <path d="M48 59c-3 1-4 3-4 5 0 2 2 4 4 4s4-2 4-4c0-2-1-4-4-5Z" fill="#D98CA0" stroke="#2A2B38" stroke-width="2"/>
  <path d="M32 66c-8-1-15 1-21 5M34 71c-8 1-14 4-19 9M64 66c8-1 15 1 21 5M62 71c8 1 14 4 19 9" stroke="#2A2B38" stroke-width="2" stroke-linecap="round"/>
  <path d="M39 31c-1 9 5 14 9 14s10-5 9-14" stroke="#D8C0B2" stroke-width="4" stroke-linecap="round"/>
  <circle cx="76" cy="24" r="6" fill="#7B61FF"/>
  <path d="M76 11v26M63 24h26" stroke="#46E287" stroke-width="4" stroke-linecap="round"/>
</svg>
